<svg width="130" height="131" viewBox="0 0 130 131"  fill="none" xmlns="http://www.w3.org/2000/svg">
<path d="M125.099 40.1479C119.179 25.9307 108.465 14.2747 94.8422 7.23188C81.2193 0.18911 65.5611 -1.78886 50.6243 1.64618C35.6875 5.08122 22.4298 13.7091 13.1851 26.0107C3.94046 38.3124 -0.698388 53.4992 0.0852464 68.8975C0.868881 84.2958 7.02476 98.9183 17.4691 110.191C27.9135 121.463 41.9767 128.663 57.1829 130.522C72.3892 132.381 87.7635 128.781 100.599 120.355C113.435 111.929 122.909 99.2177 127.354 84.4587L118.124 81.6488C114.338 94.2204 106.268 105.048 95.3343 112.225C84.401 119.402 71.3053 122.469 58.3528 120.885C45.4003 119.301 33.4214 113.169 24.525 103.567C15.6286 93.9653 10.3851 81.51 9.71762 68.3939C9.05013 55.2778 13.0015 42.3419 20.876 31.8634C28.7505 21.385 40.0433 14.0359 52.7663 11.11C65.4893 8.18404 78.8267 9.86887 90.4306 15.8678C102.034 21.8668 111.161 31.7953 116.203 43.9053L125.099 40.1479Z" fill="#F79236"/>
<path d="M18.3086 63.9487C17.9171 75.0432 21.4714 85.9113 28.3322 94.5983C35.193 103.285 44.91 109.221 55.7355 111.338C66.5609 113.455 77.7844 111.614 87.3871 106.146C96.9899 100.679 104.342 91.9433 108.12 81.5112C111.899 71.079 111.856 59.6349 107.999 49.2372C104.143 38.8396 96.7262 30.1707 87.0828 24.7899C77.4395 19.4091 66.2027 17.6695 55.3934 19.8841C44.5841 22.0986 34.9118 28.1218 28.1163 36.8705L34.2991 41.734C39.9431 34.4679 47.9763 29.4654 56.9538 27.6261C65.9313 25.7869 75.2639 27.2317 83.2731 31.7006C91.2822 36.1696 97.4422 43.3694 100.645 52.0051C103.848 60.6407 103.884 70.1455 100.745 78.8098C97.6072 87.4741 91.5012 94.7292 83.5258 99.2703C75.5504 103.811 66.2288 105.34 57.2379 103.582C48.2469 101.824 40.1766 96.8941 34.4784 89.6792C28.7803 82.4643 25.8283 73.4379 26.1535 64.2235L18.3086 63.9487Z" fill="#F79236"/>
<path d="M59.1902 92.4878C65.5216 93.8384 72.1256 92.8705 77.8144 89.7581C83.5032 86.6458 87.9035 81.5934 90.2237 75.5096C92.544 69.4258 92.6319 62.7099 90.4718 56.5699C88.3116 50.4298 84.0451 45.2687 78.4397 42.0147C72.8342 38.7607 66.2577 37.6274 59.8931 38.8187C53.5284 40.01 47.7933 43.4477 43.7192 48.5134C39.6452 53.5791 37.4997 59.9405 37.6685 66.4532C37.8374 72.9659 40.3096 79.2027 44.6404 84.0416L49.2496 79.8619C45.9067 76.1268 43.9985 71.3129 43.8682 66.2859C43.7378 61.2589 45.3939 56.3488 48.5386 52.4386C51.6832 48.5285 56.11 45.8751 61.0227 44.9556C65.9354 44.036 71.0116 44.9108 75.3383 47.4225C79.665 49.9341 82.9582 53.9179 84.6256 58.6572C86.293 63.3965 86.2251 68.5803 84.4341 73.2763C82.6432 77.9722 79.2467 81.872 74.8557 84.2743C70.4647 86.6767 65.3672 87.4238 60.4802 86.3813L59.1902 92.4878Z" fill="#F79236"/>
<path d="M127.221 39.0471C128.802 42.8436 127.024 47.2132 123.251 48.8069C119.478 50.4006 115.138 48.6148 113.558 44.8183C111.977 41.0218 113.754 36.6522 117.527 35.0585C121.3 33.4648 125.64 35.2506 127.221 39.0471Z" fill="#F79236"/>
<path d="M129.423 80.1865C131.003 83.983 129.226 88.3526 125.453 89.9463C121.68 91.5399 117.34 89.7542 115.759 85.9577C114.179 82.1612 115.956 77.7916 119.729 76.1979C123.502 74.6042 127.842 76.39 129.423 80.1865Z" fill="#F79236"/>
<path d="M34.2318 43.6698C31.0096 44.5399 27.6986 42.6167 26.8365 39.3741C25.9744 36.1316 27.8875 32.7977 31.1097 31.9276C34.3319 31.0576 37.6429 32.9808 38.505 36.2233C39.3671 39.4658 37.454 42.7997 34.2318 43.6698Z" fill="#F79236"/>
<path d="M23.9194 73.6411C20.6972 74.5111 17.3862 72.5879 16.5241 69.3454C15.662 66.1029 17.5751 62.769 20.7973 61.8989C24.0195 61.0288 27.3305 62.9521 28.1926 66.1946C29.0547 69.4371 27.1415 72.771 23.9194 73.6411Z" fill="#F79236"/>
<path d="M46.0784 84.5414C43.6629 85.0731 41.2779 83.5336 40.7513 81.1028C40.2248 78.672 41.756 76.2703 44.1715 75.7386C46.587 75.2068 48.972 76.7463 49.4986 79.1771C50.0252 81.608 48.4939 84.0096 46.0784 84.5414Z" fill="#F79236"/>
<path d="M63.2459 94.2338C60.8304 94.7656 58.4454 93.2261 57.9188 90.7953C57.3922 88.3644 58.9235 85.9628 61.3389 85.431C63.7544 84.8993 66.1394 86.4388 66.666 88.8696C67.1926 91.3004 65.6613 93.7021 63.2459 94.2338Z" fill="#F79236"/>
</svg>
