<svg width="25" height="23" viewBox="0 0 25 23" fill="none" xmlns="http://www.w3.org/2000/svg">
<path d="M23 8.16216V18.4324C23 19.8505 22.0598 21 20.9 21H4.1C2.9402 21 2 19.8505 2 18.4324V8.16216M23 8.16216C23 6.74413 22.0598 5.59459 20.9 5.59459H4.1C2.9402 5.59459 2 6.74413 2 8.16216M23 8.16216V10.473C23 11.182 22.5299 11.7568 21.95 11.7568H3.05C2.4701 11.7568 2 11.182 2 10.473V8.16216M9.77 14.4527H15.23M17.435 5.59459C17.3511 4.98086 16.9194 3.95824 16.175 3.41216C15.3384 2.79845 13.8437 2.38514 12.4885 2.38514C11.1333 2.38514 9.76658 2.79845 8.93 3.41216C8.18561 3.95824 7.64888 4.98086 7.565 5.59459H7.25C7.43011 3.58726 9.70663 2 12.4885 2C15.2704 2 17.5469 3.58726 17.727 5.59459H17.435Z" stroke="#364156" stroke-width="3" stroke-linecap="round"/>
</svg>
