<svg width="30" height="39" viewBox="0 0 30 39" fill="none" xmlns="http://www.w3.org/2000/svg">
<path d="M5.84615 19H21.8462V17H5.84615V19Z" fill="white"/>
<path d="M21.8462 23H5.84615V21H21.8462V23Z" fill="white"/>
<path d="M5.84615 15H15.5897V13H5.84615V15Z" fill="white"/>
<path fill-rule="evenodd" clip-rule="evenodd" d="M22.8974 0V0.00120543L29.999 8.775H30V39H0V0H22.8974ZM0.974359 1V38H29.0256V9.775H21.9231V1H0.974359Z" fill="white"/>
<path d="M7.55033 34H6.10402L6.11353 33.2334H7.55033C8.04512 33.2334 8.45745 33.1276 8.78731 32.916C9.11717 32.7012 9.36457 32.4017 9.5295 32.0176C9.6976 31.6302 9.78165 31.1777 9.78165 30.6602V30.2256C9.78165 29.8187 9.73407 29.4574 9.63892 29.1416C9.54377 28.8226 9.40421 28.554 9.22025 28.3359C9.03629 28.1146 8.8111 27.9469 8.54467 27.833C8.28142 27.7191 7.97852 27.6621 7.63597 27.6621H6.07547V26.8906H7.63597C8.08953 26.8906 8.50344 26.9688 8.8777 27.125C9.25197 27.278 9.5739 27.501 9.8435 27.7939C10.1163 28.0837 10.3256 28.4352 10.4715 28.8486C10.6174 29.2588 10.6904 29.721 10.6904 30.2354V30.6602C10.6904 31.1745 10.6174 31.6383 10.4715 32.0518C10.3256 32.4619 10.1147 32.8118 9.83874 33.1016C9.56597 33.3913 9.23611 33.6143 8.84916 33.7705C8.46538 33.9235 8.03244 34 7.55033 34ZM6.59405 26.8906V34H5.67583V26.8906H6.59405Z" fill="white"/>
<path d="M17.4033 30.2207V30.6699C17.4033 31.2038 17.3383 31.6823 17.2083 32.1055C17.0782 32.5286 16.8911 32.8883 16.6469 33.1846C16.4027 33.4808 16.1093 33.707 15.7667 33.8633C15.4274 34.0195 15.0467 34.0977 14.6249 34.0977C14.2157 34.0977 13.8399 34.0195 13.4973 33.8633C13.158 33.707 12.863 33.4808 12.6124 33.1846C12.365 32.8883 12.1731 32.5286 12.0368 32.1055C11.9004 31.6823 11.8322 31.2038 11.8322 30.6699V30.2207C11.8322 29.6868 11.8988 29.21 12.032 28.79C12.1684 28.3669 12.3603 28.0072 12.6077 27.7109C12.8551 27.4115 13.1485 27.1836 13.4878 27.0273C13.8304 26.8711 14.2062 26.793 14.6154 26.793C15.0372 26.793 15.4178 26.8711 15.7572 27.0273C16.0998 27.1836 16.3931 27.4115 16.6374 27.7109C16.8848 28.0072 17.0735 28.3669 17.2035 28.79C17.3367 29.21 17.4033 29.6868 17.4033 30.2207ZM16.4946 30.6699V30.2109C16.4946 29.7878 16.4518 29.4134 16.3662 29.0879C16.2837 28.7624 16.1616 28.4889 15.9998 28.2676C15.8381 28.0462 15.6399 27.8786 15.4051 27.7646C15.1736 27.6507 14.9104 27.5938 14.6154 27.5938C14.3299 27.5938 14.0714 27.6507 13.8399 27.7646C13.6115 27.8786 13.4149 28.0462 13.2499 28.2676C13.0882 28.4889 12.9629 28.7624 12.8741 29.0879C12.7853 29.4134 12.7409 29.7878 12.7409 30.2109V30.6699C12.7409 31.0964 12.7853 31.474 12.8741 31.8027C12.9629 32.1283 13.0898 32.4033 13.2547 32.6279C13.4228 32.8493 13.621 33.0169 13.8494 33.1309C14.0809 33.2448 14.3394 33.3018 14.6249 33.3018C14.923 33.3018 15.1879 33.2448 15.4194 33.1309C15.651 33.0169 15.846 32.8493 16.0046 32.6279C16.1664 32.4033 16.2885 32.1283 16.3709 31.8027C16.4534 31.474 16.4946 31.0964 16.4946 30.6699Z" fill="white"/>
<path d="M22.9602 31.7393H23.8737C23.8261 32.1885 23.7008 32.5905 23.4978 32.9453C23.2949 33.3001 23.0078 33.5817 22.6367 33.79C22.2656 33.9951 21.8026 34.0977 21.2475 34.0977C20.8415 34.0977 20.472 34.0195 20.139 33.8633C19.8091 33.707 19.5252 33.4857 19.2874 33.1992C19.0495 32.9095 18.8655 32.5628 18.7355 32.1592C18.6086 31.7523 18.5452 31.2998 18.5452 30.8018V30.0938C18.5452 29.5957 18.6086 29.1449 18.7355 28.7412C18.8655 28.3343 19.0511 27.986 19.2921 27.6963C19.5363 27.4066 19.8297 27.1836 20.1723 27.0273C20.5148 26.8711 20.9002 26.793 21.3284 26.793C21.8517 26.793 22.2942 26.8939 22.6557 27.0957C23.0173 27.2975 23.298 27.5775 23.4978 27.9355C23.7008 28.2904 23.8261 28.7021 23.8737 29.1709H22.9602C22.9158 28.8389 22.8334 28.554 22.7128 28.3164C22.5923 28.0755 22.421 27.89 22.199 27.7598C21.977 27.6296 21.6868 27.5645 21.3284 27.5645C21.0207 27.5645 20.7495 27.6247 20.5148 27.7451C20.2833 27.8656 20.0882 28.0365 19.9296 28.2578C19.7742 28.4792 19.6569 28.7445 19.5776 29.0537C19.4983 29.363 19.4586 29.7064 19.4586 30.084V30.8018C19.4586 31.1501 19.4935 31.4772 19.5633 31.7832C19.6363 32.0892 19.7457 32.3577 19.8916 32.5889C20.0375 32.82 20.223 33.0023 20.4482 33.1357C20.6734 33.266 20.9398 33.3311 21.2475 33.3311C21.6376 33.3311 21.9485 33.2676 22.18 33.1406C22.4115 33.0137 22.586 32.8314 22.7033 32.5938C22.8239 32.3561 22.9095 32.0713 22.9602 31.7393Z" fill="white"/>
</svg>
