<svg width="48" height="48" viewBox="0 0 48 48" fill="none" xmlns="http://www.w3.org/2000/svg">
<path d="M34.7068 18.2372C34.8609 17.7163 34.7068 17.333 33.9651 17.333H31.5109C30.8859 17.333 30.5984 17.6622 30.4443 18.0288C30.4443 18.0288 29.1943 21.0747 27.4276 23.0497C26.8568 23.6205 26.5943 23.8038 26.2818 23.8038C26.1276 23.8038 25.8901 23.6205 25.8901 23.0997V18.2372C25.8901 17.6122 25.7151 17.333 25.1984 17.333H21.3401C20.9484 17.333 20.7151 17.6247 20.7151 17.8955C20.7151 18.4872 21.5984 18.6247 21.6901 20.2913V23.908C21.6901 24.6997 21.5484 24.8455 21.2359 24.8455C20.4026 24.8455 18.3776 21.7872 17.1776 18.2872C16.9359 17.608 16.6984 17.333 16.0693 17.333H13.6151C12.9151 17.333 12.7734 17.6622 12.7734 18.0288C12.7734 18.6788 13.6068 21.908 16.6526 26.1747C18.6818 29.0872 21.5401 30.6663 24.1401 30.6663C25.7026 30.6663 25.8943 30.3163 25.8943 29.7122C25.8943 26.9288 25.7526 26.6663 26.5359 26.6663C26.8984 26.6663 27.5234 26.8497 28.9818 28.2538C30.6484 29.9205 30.9234 30.6663 31.8568 30.6663H34.3109C35.0109 30.6663 35.3651 30.3163 35.1609 29.6247C34.6943 28.1705 31.5401 25.1788 31.3984 24.9788C31.0359 24.5122 31.1401 24.3038 31.3984 23.8872C31.4026 23.883 34.3984 19.6663 34.7068 18.2372Z" fill="#182330"/>
<circle cx="24" cy="24" r="23.5" stroke="#182330"/>
</svg>
