
<svg width="11" height="18" viewBox="0 0 11 18" fill="none" xmlns="http://www.w3.org/2000/svg">
<path fill-rule="evenodd" clip-rule="evenodd" d="M0.399129 9.9576C0.143567 9.7036 0 9.35915 0 9C0 8.64085 0.143567 8.2964 0.399129 8.0424L8.1108 0.380213C8.36791 0.133488 8.71226 -0.0030365 9.06969 4.95911e-05C9.42712 0.00313568 9.76903 0.145584 10.0218 0.396713C10.2745 0.64784 10.4179 0.987556 10.421 1.34269C10.4241 1.69783 10.2867 2.03997 10.0384 2.29542L3.2905 9L10.0384 15.7046C10.2867 15.96 10.4241 16.3022 10.421 16.6573C10.4179 17.0124 10.2745 17.3522 10.0218 17.6033C9.76903 17.8544 9.42712 17.9969 9.06969 17.9999C8.71226 18.003 8.36791 17.8665 8.1108 17.6198L0.399129 9.9576Z" fill="#182330"/>
</svg>
