<svg width="30" height="39" viewBox="0 0 30 39" fill="none" xmlns="http://www.w3.org/2000/svg">
<path d="M5.84615 19H21.8462V17H5.84615V19Z" fill="white"/>
<path d="M21.8462 23H5.84615V21H21.8462V23Z" fill="white"/>
<path d="M5.84615 15H15.5897V13H5.84615V15Z" fill="white"/>
<path fill-rule="evenodd" clip-rule="evenodd" d="M22.8974 0V0.00120543L29.999 8.775H30V39H0V0H22.8974ZM0.974359 1V38H29.0256V9.775H21.9231V1H0.974359Z" fill="white"/>
<path d="M9.20503 31.2119H7.35432V30.4453H9.20503C9.56344 30.4453 9.85365 30.3867 10.0757 30.2695C10.2977 30.1523 10.4595 29.9896 10.5609 29.7812C10.6656 29.5729 10.7179 29.3353 10.7179 29.0684C10.7179 28.8242 10.6656 28.5947 10.5609 28.3799C10.4595 28.165 10.2977 27.9925 10.0757 27.8623C9.85365 27.7288 9.56344 27.6621 9.20503 27.6621H7.56841V34H6.65019V26.8906H9.20503C9.72837 26.8906 10.1708 26.9834 10.5324 27.1689C10.894 27.3545 11.1683 27.6117 11.3555 27.9404C11.5426 28.266 11.6362 28.6387 11.6362 29.0586C11.6362 29.5143 11.5426 29.9033 11.3555 30.2256C11.1683 30.5479 10.894 30.7936 10.5324 30.9629C10.1708 31.1289 9.72837 31.2119 9.20503 31.2119Z" fill="white"/>
<path d="M14.6715 34H13.2252L13.2347 33.2334H14.6715C15.1663 33.2334 15.5786 33.1276 15.9085 32.916C16.2384 32.7012 16.4858 32.4017 16.6507 32.0176C16.8188 31.6302 16.9028 31.1777 16.9028 30.6602V30.2256C16.9028 29.8187 16.8553 29.4574 16.7601 29.1416C16.665 28.8226 16.5254 28.554 16.3414 28.3359C16.1575 28.1146 15.9323 27.9469 15.6659 27.833C15.4026 27.7191 15.0997 27.6621 14.7572 27.6621H13.1967V26.8906H14.7572C15.2107 26.8906 15.6246 26.9688 15.9989 27.125C16.3732 27.278 16.6951 27.501 16.9647 27.7939C17.2375 28.0837 17.4468 28.4352 17.5927 28.8486C17.7386 29.2588 17.8115 29.721 17.8115 30.2354V30.6602C17.8115 31.1745 17.7386 31.6383 17.5927 32.0518C17.4468 32.4619 17.2359 32.8118 16.9599 33.1016C16.6872 33.3913 16.3573 33.6143 15.9704 33.7705C15.5866 33.9235 15.1536 34 14.6715 34ZM13.7152 26.8906V34H12.797V26.8906H13.7152Z" fill="white"/>
<path d="M20.1095 26.8906V34H19.1913V26.8906H20.1095ZM23.0116 30.0889V30.8604H19.9097V30.0889H23.0116ZM23.4826 26.8906V27.6621H19.9097V26.8906H23.4826Z" fill="white"/>
</svg>
