<svg width="11" height="18" viewBox="0 0 11 18" fill="none" xmlns="http://www.w3.org/2000/svg">
<path fill-rule="evenodd" clip-rule="evenodd" d="M10.6009 8.0424C10.8564 8.2964 11 8.64085 11 9C11 9.35915 10.8564 9.7036 10.6009 9.9576L2.8892 17.6198C2.63209 17.8665 2.28774 18.003 1.93031 18C1.57288 17.9969 1.23097 17.8544 0.978222 17.6033C0.725472 17.3522 0.582105 17.0124 0.578999 16.6573C0.575892 16.3022 0.713297 15.96 0.961617 15.7046L7.7095 9L0.961617 2.29542C0.713297 2.03997 0.575892 1.69783 0.578999 1.34269C0.582105 0.987555 0.725472 0.64784 0.978222 0.396712C1.23097 0.145584 1.57288 0.00313723 1.93031 5.12022e-05C2.28774 -0.00303483 2.63209 0.133487 2.8892 0.380213L10.6009 8.0424Z" fill="#182330"/>
</svg>
