<svg width="80" height="80" viewBox="0 0 80 80" fill="none" xmlns="http://www.w3.org/2000/svg">
<rect width="80" height="80" rx="40" fill="#F6F7FB"/>
<g clip-path="url(#clip0_892_5673)">
<path fill-rule="evenodd" clip-rule="evenodd" d="M38.5864 32.5856C38.9614 32.2106 39.47 32 40.0004 32C40.5307 32 41.0393 32.2106 41.4144 32.5856L52.7284 43.8996C53.0927 44.2768 53.2943 44.782 53.2897 45.3064C53.2852 45.8308 53.0748 46.3324 52.704 46.7032C52.3332 47.074 51.8316 47.2844 51.3072 47.2889C50.7828 47.2935 50.2776 47.0919 49.9004 46.7276L40.0004 36.8276L30.1004 46.7276C29.7232 47.0919 29.218 47.2935 28.6936 47.2889C28.1692 47.2844 27.6675 47.074 27.2967 46.7032C26.9259 46.3324 26.7156 45.8308 26.711 45.3064C26.7065 44.782 26.908 44.2768 27.2724 43.8996L38.5864 32.5856Z" fill="#182330"/>
</g>
<defs>
<clipPath id="clip0_892_5673">
<rect width="48" height="48" fill="white" transform="translate(16 16)"/>
</clipPath>
</defs>
</svg>
