<svg width="30" height="28" viewBox="0 0 30 28" fill="none" xmlns="http://www.w3.org/2000/svg">
<path d="M15.9143 3.49242C18.2099 -0.0244579 22.9492 -1.05717 26.4999 1.18578C30.0506 3.42874 31.068 8.09801 28.7724 11.6149L25.2097 17.0731C22.9141 20.5899 18.1747 21.6227 14.624 19.3797C12.3306 17.9309 11.094 15.4699 11.1245 12.9609C11.1295 12.5464 11.5959 12.3277 11.9487 12.5506C12.1202 12.6589 12.2176 12.8496 12.2178 13.051C12.2194 15.1727 13.2772 17.2441 15.2178 18.47C18.2613 20.3925 22.3236 19.5074 24.2912 16.4929L27.854 11.0347C29.8217 8.02024 28.9496 4.01801 25.9061 2.09548C22.8627 0.172943 18.8004 1.05813 16.8327 4.0726L15.942 5.43714C15.778 5.68835 15.4395 5.76211 15.1859 5.6019C14.9323 5.44169 14.8596 5.10817 15.0236 4.85696L15.9143 3.49242Z" fill="white"/>
<path d="M14.0857 24.1788C11.7901 27.6957 7.05077 28.7284 3.50008 26.4855C-0.0506076 24.2425 -1.06805 19.5732 1.22755 16.0564L4.79032 10.5982C7.08593 7.08131 11.8253 6.0486 15.376 8.29156C17.6694 9.74032 18.906 12.2014 18.8755 14.7103C18.8705 15.1248 18.4041 15.3436 18.0513 15.1207C17.8798 15.0124 17.7824 14.8217 17.7822 14.6203C17.7806 12.4985 16.7228 10.4271 14.7822 9.20125C11.7387 7.27872 7.67643 8.1639 5.70876 11.1784L2.146 16.6365C0.178333 19.651 1.05043 23.6532 4.09387 25.5758C7.13732 27.4983 11.1996 26.6131 13.1673 23.5987L14.058 22.2341C14.222 21.9829 14.5605 21.9091 14.8141 22.0694C15.0677 22.2296 15.1404 22.5631 14.9764 22.8143L14.0857 24.1788Z" fill="white"/>
</svg>
