<svg width="10" height="10" viewBox="0 0 10 10" fill="none" xmlns="http://www.w3.org/2000/svg">
<path fill-rule="evenodd" clip-rule="evenodd" d="M0.853553 0.144493C0.658291 -0.0507687 0.341709 -0.0507687 0.146447 0.144494C-0.0488155 0.339756 -0.0488155 0.656338 0.146447 0.8516L4.29446 4.99961L0.147611 9.14646C-0.0476511 9.34172 -0.0476511 9.6583 0.147611 9.85357C0.342873 10.0488 0.659456 10.0488 0.854717 9.85357L5.00157 5.70672L9.14841 9.85357C9.34368 10.0488 9.66026 10.0488 9.85552 9.85357C10.0508 9.6583 10.0508 9.34172 9.85552 9.14646L5.70867 4.99961L9.85668 0.8516C10.0519 0.656338 10.0519 0.339756 9.85668 0.144494C9.66142 -0.0507687 9.34484 -0.0507687 9.14958 0.144493L5.00157 4.2925L0.853553 0.144493Z" fill="#182330"/>
</svg>
